{"accessors" : [{"bufferView" : 0, "byteOffset" : 0, "componentType" : 5123, "count" : 852, "type" : "SCALAR", "max" : [730], "min" : [0]}, {"bufferView" : 1, "byteOffset" : 0, "componentType" : 5126, "count" : 731, "type" : "VEC3", "max" : [15.168821334838867, 2.4879467487335205, 0.9086405038833618], "min" : [-20.766939163208008, -33.39323043823242, -0.49407151341438293], "name" : "POSITION"}, {"bufferView" : 1, "byteOffset" : 12, "componentType" : 5126, "count" : 731, "type" : "VEC3", "max" : [1.0000044107437134, 1.0000044107437134, 1.0000044107437134], "min" : [-1.0000044107437134, -1.0000044107437134, -1.0000044107437134], "name" : "NORMAL"}, {"bufferView" : 1, "byteOffset" : 24, "componentType" : 5126, "count" : 731, "type" : "VEC2", "max" : [0.875, 0.6616650223731995], "min" : [0, 0], "name" : "TEXCOORD_0"}, {"bufferView" : 0, "byteOffset" : 1704, "componentType" : 5123, "count" : 852, "type" : "SCALAR", "max" : [730], "min" : [0]}, {"bufferView" : 2, "byteOffset" : 0, "componentType" : 5126, "count" : 731, "type" : "VEC3", "max" : [15.168821334838867, 2.4879467487335205, 0.9086405038833618], "min" : [-20.766939163208008, -33.39323043823242, -0.49407151341438293], "name" : "POSITION"}, {"bufferView" : 2, "byteOffset" : 12, "componentType" : 5126, "count" : 731, "type" : "VEC3", "max" : [1.0000044107437134, 1.0000044107437134, 1.0000044107437134], "min" : [-1.0000044107437134, -1.0000044107437134, -1.0000044107437134], "name" : "NORMAL"}, {"bufferView" : 2, "byteOffset" : 24, "componentType" : 5126, "count" : 731, "type" : "VEC2", "max" : [0.875, 0.6616650223731995], "min" : [0, 0], "name" : "TEXCOORD_0"}], "asset" : {"generator" : "Aspose.3D 23.9.0", "version" : "2.0"}, "buffers" : [{"uri" : "data:application/octet-stream;base64,", "byteLength" : 57948}], "bufferViews" : [{"buffer" : 0, "byteOffset" : 0, "byteLength" : 3408, "target" : 34963}, {"buffer" : 0, "byteOffset" : 3412, "byteLength" : 27264, "byteStride" : 32, "target" : 34962}, {"buffer" : 0, "byteOffset" : 30680, "byteLength" : 27264, "byteStride" : 32, "target" : 34962}], "materials" : [{"name" : "Jewelry", "pbrMetallicRoughness" : {"baseColorFactor" : [1, 1, 1, 1], "metallicFactor" : 1, "roughnessFactor" : 1}, "emissiveFactor" : [0, 0, 0], "alphaMode" : "OPAQUE", "doubleSided" : true}, {"name" : "Jewelry", "pbrMetallicRoughness" : {"baseColorFactor" : [1, 1, 1, 1], "metallicFactor" : 1, "roughnessFactor" : 1}, "emissiveFactor" : [0, 0, 0], "alphaMode" : "OPAQUE", "doubleSided" : true}], "meshes" : [{"primitives" : [{"attributes" : {"POSITION" : 1, "NORMAL" : 2, "TEXCOORD_0" : 3}, "indices" : 0, "material" : 0, "mode" : 4}]}, {"primitives" : [{"attributes" : {"POSITION" : 5, "NORMAL" : 6, "TEXCOORD_0" : 7}, "indices" : 4, "material" : 1, "mode" : 4}]}], "nodes" : [{"matrix" : [1, 0, 0, 0, 0, 1, 0, 0, 0, 0, 1, 0, 0.5196375846862793, -4.636348724365234, 0.2911013066768646, 1], "mesh" : 0, "name" : "Object_8"}, {"matrix" : [1, 0, 0, 0, 0, 1, 0, 0, 0, 0, 1, 0, 0.43555545806884766, -4.636348724365234, -1.084288239479065, 1], "mesh" : 1, "name" : "Object_8.001"}, {"children" : [0, 1], "matrix" : [0.1391114443540573, 0, 0, 0, 0, 0.1391114443540573, 0, 0, 0, 0, 0.2579365074634552, 0, 0.7525503039360046, 5.218557834625244, -0.07084329426288605, 1], "name" : "Cube.002_7"}, {"children" : [2], "matrix" : [1, 0, 0, 0, 0, -3.029462689596585E-07, 0.9999999657714298, 0, 0, -0.9999999657714298, -3.029462689596585E-07, 0, 0, 0, 0, 1], "name" : "GLTF_SceneRootNode"}, {"children" : [3], "name" : "root"}, {"children" : [4], "matrix" : [1, 0, 0, 0, 0, -3.029462689596585E-07, -0.9999999657714298, 0, 0, 0.9999999657714298, -3.029462689596585E-07, 0, 0, 0, 0, 1], "name" : "Sketchfab_model"}], "scene" : 0, "scenes" : [{"nodes" : [5]}]}