{"accessors" : [{"bufferView" : 0, "byteOffset" : 0, "componentType" : 5123, "count" : 36, "type" : "SCALAR", "max" : [34], "min" : [0]}, {"bufferView" : 1, "byteOffset" : 0, "componentType" : 5126, "count" : 35, "type" : "VEC3", "max" : [0.1875, 1.875, 0.1875], "min" : [-0.1875, 0, -0.1875], "name" : "POSITION"}, {"bufferView" : 1, "byteOffset" : 12, "componentType" : 5126, "count" : 35, "type" : "VEC3", "max" : [1.0000044107437134, 1.0000044107437134, 1.0000044107437134], "min" : [-1.0000044107437134, -1.0000044107437134, -1.0000044107437134], "name" : "NORMAL"}, {"bufferView" : 1, "byteOffset" : 24, "componentType" : 5126, "count" : 35, "type" : "VEC2", "max" : [0.46875, 1], "min" : [0, 0.53125], "name" : "TEXCOORD_0"}, {"bufferView" : 0, "byteOffset" : 72, "componentType" : 5123, "count" : 36, "type" : "SCALAR", "max" : [34], "min" : [0]}, {"bufferView" : 2, "byteOffset" : 0, "componentType" : 5126, "count" : 35, "type" : "VEC3", "max" : [0.125, 2, 0.125], "min" : [-0.125, 1.8125, -0.125], "name" : "POSITION"}, {"bufferView" : 2, "byteOffset" : 12, "componentType" : 5126, "count" : 35, "type" : "VEC3", "max" : [1.0000044107437134, 1.0000044107437134, 1.0000044107437134], "min" : [-1.0000044107437134, -1.0000044107437134, -1.0000044107437134], "name" : "NORMAL"}, {"bufferView" : 2, "byteOffset" : 24, "componentType" : 5126, "count" : 35, "type" : "VEC2", "max" : [0.609375, 1], "min" : [0.21875, 0.40625], "name" : "TEXCOORD_0"}, {"bufferView" : 0, "byteOffset" : 144, "componentType" : 5123, "count" : 36, "type" : "SCALAR", "max" : [34], "min" : [0]}, {"bufferView" : 3, "byteOffset" : 0, "componentType" : 5126, "count" : 35, "type" : "VEC3", "max" : [-0.1875, 0.9375, 0.125], "min" : [-0.625, 0.6875, -0.125], "name" : "POSITION"}, {"bufferView" : 3, "byteOffset" : 12, "componentType" : 5126, "count" : 35, "type" : "VEC3", "max" : [1.0000044107437134, 1.0000044107437134, 1.0000044107437134], "min" : [-1.0000044107437134, -1.0000044107437134, -1.0000044107437134], "name" : "NORMAL"}, {"bufferView" : 3, "byteOffset" : 24, "componentType" : 5126, "count" : 35, "type" : "VEC2", "max" : [0.578125, 0.65625], "min" : [0.328125, 0.40625], "name" : "TEXCOORD_0"}, {"bufferView" : 0, "byteOffset" : 216, "componentType" : 5123, "count" : 36, "type" : "SCALAR", "max" : [34], "min" : [0]}, {"bufferView" : 4, "byteOffset" : 0, "componentType" : 5126, "count" : 35, "type" : "VEC3", "max" : [0.0625, 0.5625, 0.125], "min" : [-0.125, 0, -0.125], "name" : "POSITION"}, {"bufferView" : 4, "byteOffset" : 12, "componentType" : 5126, "count" : 35, "type" : "VEC3", "max" : [1.0000044107437134, 1.0000044107437134, 1.0000044107437134], "min" : [-1.0000044107437134, -1.0000044107437134, -1.0000044107437134], "name" : "NORMAL"}, {"bufferView" : 4, "byteOffset" : 24, "componentType" : 5126, "count" : 35, "type" : "VEC2", "max" : [0.59375, 1], "min" : [0, 0.328125], "name" : "TEXCOORD_0"}, {"bufferView" : 0, "byteOffset" : 288, "componentType" : 5123, "count" : 36, "type" : "SCALAR", "max" : [34], "min" : [0]}, {"bufferView" : 5, "byteOffset" : 0, "componentType" : 5126, "count" : 35, "type" : "VEC3", "max" : [-0.1875, 0.5, 0.125], "min" : [-0.375, -0.0625, -0.125], "name" : "POSITION"}, {"bufferView" : 5, "byteOffset" : 12, "componentType" : 5126, "count" : 35, "type" : "VEC3", "max" : [1.0000044107437134, 1.0000044107437134, 1.0000044107437134], "min" : [-1.0000044107437134, -1.0000044107437134, -1.0000044107437134], "name" : "NORMAL"}, {"bufferView" : 5, "byteOffset" : 24, "componentType" : 5126, "count" : 35, "type" : "VEC2", "max" : [0.5625, 1], "min" : [0.375, 0.40625], "name" : "TEXCOORD_0"}, {"bufferView" : 0, "byteOffset" : 360, "componentType" : 5123, "count" : 36, "type" : "SCALAR", "max" : [34], "min" : [0]}, {"bufferView" : 6, "byteOffset" : 0, "componentType" : 5126, "count" : 35, "type" : "VEC3", "max" : [0.125, 0.125, 0.125], "min" : [-0.3125, -0.125, -0.125], "name" : "POSITION"}, {"bufferView" : 6, "byteOffset" : 12, "componentType" : 5126, "count" : 35, "type" : "VEC3", "max" : [1.0000044107437134, 1.0000044107437134, 1.0000044107437134], "min" : [-1.0000044107437134, -1.0000044107437134, -1.0000044107437134], "name" : "NORMAL"}, {"bufferView" : 6, "byteOffset" : 24, "componentType" : 5126, "count" : 35, "type" : "VEC2", "max" : [0.578125, 0.71875], "min" : [0, 0.40625], "name" : "TEXCOORD_0"}], "asset" : {"generator" : "Aspose.3D 23.9.0", "version" : "2.0"}, "buffers" : [{"uri" : "data:application/octet-stream;base64,", "byteLength" : 7372}], "bufferViews" : [{"buffer" : 0, "byteOffset" : 0, "byteLength" : 432, "target" : 34963}, {"buffer" : 0, "byteOffset" : 436, "byteLength" : 1152, "byteStride" : 32, "target" : 34962}, {"buffer" : 0, "byteOffset" : 1592, "byteLength" : 1152, "byteStride" : 32, "target" : 34962}, {"buffer" : 0, "byteOffset" : 2748, "byteLength" : 1152, "byteStride" : 32, "target" : 34962}, {"buffer" : 0, "byteOffset" : 3904, "byteLength" : 1152, "byteStride" : 32, "target" : 34962}, {"buffer" : 0, "byteOffset" : 5060, "byteLength" : 1152, "byteStride" : 32, "target" : 34962}, {"buffer" : 0, "byteOffset" : 6216, "byteLength" : 1152, "byteStride" : 32, "target" : 34962}], "materials" : [{"name" : "material_0", "pbrMetallicRoughness" : {"baseColorFactor" : [0.012610157951712608, 0.8000000715255737, 0.12940041720867157, 1], "metallicFactor" : 0, "roughnessFactor" : 1}, "emissiveFactor" : [0, 0, 0], "alphaMode" : "OPAQUE", "doubleSided" : true}, {"name" : "material_0", "pbrMetallicRoughness" : {"baseColorFactor" : [0.012610157951712608, 0.8000000715255737, 0.12940041720867157, 1], "metallicFactor" : 0, "roughnessFactor" : 1}, "emissiveFactor" : [0, 0, 0], "alphaMode" : "OPAQUE", "doubleSided" : true}, {"name" : "material_0", "pbrMetallicRoughness" : {"baseColorFactor" : [0.012610157951712608, 0.8000000715255737, 0.12940041720867157, 1], "metallicFactor" : 0, "roughnessFactor" : 1}, "emissiveFactor" : [0, 0, 0], "alphaMode" : "OPAQUE", "doubleSided" : true}, {"name" : "material_0", "pbrMetallicRoughness" : {"baseColorFactor" : [0.012610157951712608, 0.8000000715255737, 0.12940041720867157, 1], "metallicFactor" : 0, "roughnessFactor" : 1}, "emissiveFactor" : [0, 0, 0], "alphaMode" : "OPAQUE", "doubleSided" : true}, {"name" : "material_0", "pbrMetallicRoughness" : {"baseColorFactor" : [0.012610157951712608, 0.8000000715255737, 0.12940041720867157, 1], "metallicFactor" : 0, "roughnessFactor" : 1}, "emissiveFactor" : [0, 0, 0], "alphaMode" : "OPAQUE", "doubleSided" : true}, {"name" : "material_0", "pbrMetallicRoughness" : {"baseColorFactor" : [0.012610157951712608, 0.8000000715255737, 0.12940041720867157, 1], "metallicFactor" : 0, "roughnessFactor" : 1}, "emissiveFactor" : [0, 0, 0], "alphaMode" : "OPAQUE", "doubleSided" : true}], "meshes" : [{"primitives" : [{"attributes" : {"POSITION" : 1, "NORMAL" : 2, "TEXCOORD_0" : 3}, "indices" : 0, "material" : 0, "mode" : 4}]}, {"primitives" : [{"attributes" : {"POSITION" : 5, "NORMAL" : 6, "TEXCOORD_0" : 7}, "indices" : 4, "material" : 1, "mode" : 4}]}, {"primitives" : [{"attributes" : {"POSITION" : 9, "NORMAL" : 10, "TEXCOORD_0" : 11}, "indices" : 8, "material" : 2, "mode" : 4}]}, {"primitives" : [{"attributes" : {"POSITION" : 13, "NORMAL" : 14, "TEXCOORD_0" : 15}, "indices" : 12, "material" : 3, "mode" : 4}]}, {"primitives" : [{"attributes" : {"POSITION" : 17, "NORMAL" : 18, "TEXCOORD_0" : 19}, "indices" : 16, "material" : 4, "mode" : 4}]}, {"primitives" : [{"attributes" : {"POSITION" : 21, "NORMAL" : 22, "TEXCOORD_0" : 23}, "indices" : 20, "material" : 5, "mode" : 4}]}], "nodes" : [{"mesh" : 0, "name" : "Object_5"}, {"children" : [0], "name" : "cube_0"}, {"mesh" : 1, "name" : "Object_7"}, {"children" : [2], "name" : "cube_1"}, {"mesh" : 2, "name" : "Object_9"}, {"children" : [4], "name" : "cube_2"}, {"mesh" : 3, "name" : "Object_11"}, {"children" : [6], "matrix" : [1, 0, 0, 0, 0, 1, 0, 0, 0, 0, 1, 0, -0.5625, 0.75, 0, 1], "name" : "cube_3"}, {"mesh" : 4, "name" : "Object_13"}, {"children" : [8], "matrix" : [-1, 0, 1.2246468525851679E-16, 0, 0, 1, 0, 0, -1.2246468525851679E-16, 0, -1, 0, 0.3125, 1.375, 0, 1], "name" : "cube_4"}, {"mesh" : 5, "name" : "Object_15"}, {"children" : [10], "matrix" : [-1, 0, 1.2246468525851679E-16, 0, 0, 1, 0, 0, -1.2246468525851679E-16, 0, -1, 0, 0.3125, 1.375, 0, 1], "name" : "cube_5"}, {"children" : [1, 3, 5, 7, 9, 11], "name" : "_6"}, {"children" : [12], "matrix" : [1, 0, 0, 0, 0, -3.029462689596585E-07, 0.9999999657714298, 0, 0, -0.9999999657714298, -3.029462689596585E-07, 0, 0, 0, 0, 1], "name" : "GLTF_SceneRootNode"}, {"children" : [13], "name" : "root"}, {"children" : [14], "matrix" : [1, 0, 0, 0, 0, -3.029462689596585E-07, -0.9999999657714298, 0, 0, 0.9999999657714298, -3.029462689596585E-07, 0, 0, 0, 0, 1], "name" : "Sketchfab_model"}], "scene" : 0, "scenes" : [{"nodes" : [15]}]}